<svg width="1416" height="858" viewBox="0 0 1416 858" fill="none" xmlns="http://www.w3.org/2000/svg">
<g filter="url(#filter0_d_249_714)">
<rect x="55" y="50" width="1300" height="475" rx="80" fill="url(#paint0_linear_249_714)"/>
</g>
<path d="M1124 469C1124 365.831 1079.8 266.887 1001.13 193.935C922.46 120.984 815.758 80 704.5 80C593.242 80 486.54 120.984 407.869 193.935C329.197 266.887 285 365.831 285 469L704.5 469H1124Z" fill="white" fill-opacity="0.2"/>
<path d="M1060 466C1060 378.213 1022.28 294.022 955.144 231.948C888.006 169.873 796.948 135 702 135C607.053 135 515.994 169.873 448.856 231.948C381.718 294.022 344 378.213 344 466L702 466H1060Z" fill="white" fill-opacity="0.5"/>
<circle cx="705" cy="153" r="60" fill="#FF75F1"/>
<path d="M735 126.333C733 126.333 723 131.333 705 131.333C687.333 131.333 676.667 126.333 675 126.333C673.333 126.333 671.667 127.667 671.667 129.667V176.333C671.667 178.333 673.333 179.667 675 179.667C677 179.667 686.667 174.667 705 174.667C723 174.667 733 179.667 735 179.667C736.667 179.667 738.333 178.333 738.333 176.333V129.667C738.333 127.667 736.667 126.333 735 126.333ZM731.667 171.667C725 169.667 716.333 168 705 168C693.667 168 685 169.667 678.333 171.667V134.333C687 136.667 696 138 705 138C716.333 138 725 136.333 731.667 134.333V171.667ZM695.667 149.667L683.333 164.333C690 163.333 697.333 163 705 163C712.667 163 720 163.333 726.667 164.333L711.667 146.333L702.333 157.667L695.667 149.667Z" fill="white"/>
<path d="M646.882 137H763L738.761 278H670.385L646.882 137Z" fill="url(#paint1_linear_249_714)"/>
<path d="M681.108 224.121L683.012 230.107H683.086L684.994 224.121H686.84L684.124 232H681.978L679.258 224.121H681.108ZM688.33 232V224.121H691.439C692.034 224.121 692.542 224.228 692.962 224.441C693.385 224.651 693.707 224.95 693.928 225.337C694.151 225.722 694.262 226.174 694.262 226.695C694.262 227.218 694.15 227.668 693.924 228.045C693.698 228.42 693.371 228.707 692.943 228.907C692.517 229.107 692.002 229.207 691.396 229.207H689.315V227.868H691.127C691.445 227.868 691.709 227.825 691.92 227.737C692.13 227.65 692.286 227.519 692.389 227.345C692.494 227.171 692.547 226.954 692.547 226.695C692.547 226.433 692.494 226.213 692.389 226.033C692.286 225.854 692.129 225.718 691.916 225.625C691.705 225.531 691.44 225.483 691.119 225.483H689.996V232H688.33ZM692.585 228.415L694.543 232H692.704L690.789 228.415H692.585ZM704.255 226.668C704.201 226.481 704.125 226.315 704.028 226.172C703.93 226.026 703.811 225.902 703.67 225.802C703.531 225.7 703.372 225.622 703.193 225.568C703.016 225.514 702.82 225.487 702.604 225.487C702.202 225.487 701.848 225.587 701.542 225.787C701.24 225.987 701.004 226.278 700.835 226.66C700.665 227.04 700.581 227.504 700.581 228.053C700.581 228.602 700.664 229.069 700.831 229.453C700.997 229.838 701.233 230.132 701.539 230.334C701.844 230.534 702.204 230.634 702.62 230.634C702.997 230.634 703.319 230.568 703.585 230.434C703.855 230.298 704.06 230.107 704.201 229.861C704.344 229.615 704.416 229.324 704.416 228.988L704.755 229.038H702.724V227.784H706.02V228.776C706.02 229.469 705.874 230.064 705.582 230.561C705.289 231.056 704.887 231.438 704.374 231.708C703.861 231.974 703.274 232.108 702.612 232.108C701.873 232.108 701.224 231.945 700.665 231.619C700.106 231.291 699.67 230.825 699.357 230.223C699.047 229.617 698.892 228.899 698.892 228.068C698.892 227.43 698.984 226.86 699.169 226.36C699.356 225.858 699.618 225.432 699.954 225.083C700.29 224.734 700.681 224.469 701.127 224.287C701.573 224.105 702.057 224.013 702.577 224.013C703.024 224.013 703.439 224.079 703.824 224.21C704.208 224.338 704.55 224.52 704.847 224.756C705.147 224.992 705.392 225.273 705.582 225.598C705.772 225.922 705.893 226.278 705.947 226.668H704.255ZM709.468 232.112C709.091 232.112 708.755 232.046 708.46 231.915C708.165 231.782 707.931 231.586 707.76 231.327C707.59 231.065 707.506 230.739 707.506 230.35C707.506 230.021 707.566 229.746 707.686 229.522C707.807 229.299 707.971 229.12 708.179 228.984C708.387 228.848 708.623 228.745 708.887 228.676C709.153 228.607 709.433 228.558 709.725 228.53C710.069 228.494 710.346 228.461 710.556 228.43C710.767 228.397 710.919 228.348 711.014 228.284C711.109 228.22 711.156 228.125 711.156 227.999V227.976C711.156 227.732 711.08 227.544 710.926 227.41C710.774 227.277 710.559 227.21 710.279 227.21C709.984 227.21 709.75 227.276 709.575 227.407C709.401 227.535 709.286 227.696 709.229 227.891L707.713 227.768C707.79 227.409 707.942 227.099 708.167 226.837C708.393 226.573 708.684 226.37 709.041 226.229C709.4 226.086 709.815 226.014 710.287 226.014C710.615 226.014 710.929 226.052 711.23 226.129C711.532 226.206 711.8 226.326 712.034 226.487C712.27 226.649 712.455 226.856 712.591 227.11C712.727 227.362 712.795 227.663 712.795 228.014V232H711.241V231.181H711.195C711.1 231.365 710.973 231.528 710.814 231.669C710.655 231.808 710.464 231.917 710.241 231.996C710.018 232.073 709.76 232.112 709.468 232.112ZM709.937 230.981C710.178 230.981 710.391 230.933 710.576 230.838C710.76 230.741 710.905 230.61 711.01 230.446C711.115 230.282 711.168 230.096 711.168 229.888V229.261C711.117 229.294 711.046 229.325 710.956 229.353C710.869 229.379 710.77 229.403 710.66 229.426C710.55 229.447 710.44 229.466 710.329 229.484C710.219 229.499 710.119 229.514 710.029 229.526C709.837 229.555 709.669 229.599 709.525 229.661C709.382 229.723 709.27 229.806 709.191 229.911C709.111 230.014 709.071 230.142 709.071 230.296C709.071 230.519 709.152 230.689 709.314 230.807C709.478 230.923 709.686 230.981 709.937 230.981ZM714.608 232V226.091H716.17V227.133H716.24C716.363 226.787 716.568 226.514 716.855 226.314C717.142 226.114 717.486 226.014 717.886 226.014C718.291 226.014 718.636 226.115 718.921 226.318C719.206 226.518 719.395 226.79 719.49 227.133H719.552C719.672 226.795 719.89 226.524 720.206 226.322C720.524 226.117 720.9 226.014 721.333 226.014C721.885 226.014 722.332 226.19 722.676 226.541C723.022 226.89 723.195 227.385 723.195 228.026V232H721.56V228.349C721.56 228.021 721.473 227.775 721.298 227.61C721.124 227.446 720.906 227.364 720.644 227.364C720.347 227.364 720.115 227.459 719.948 227.649C719.781 227.836 719.698 228.084 719.698 228.391V232H718.109V228.315C718.109 228.025 718.026 227.794 717.859 227.622C717.695 227.45 717.478 227.364 717.209 227.364C717.027 227.364 716.863 227.41 716.717 227.503C716.573 227.593 716.459 227.719 716.374 227.884C716.29 228.045 716.247 228.235 716.247 228.453V232H714.608ZM727.724 232.115C727.116 232.115 726.593 231.992 726.155 231.746C725.719 231.497 725.383 231.146 725.147 230.692C724.911 230.235 724.793 229.696 724.793 229.072C724.793 228.465 724.911 227.931 725.147 227.472C725.383 227.013 725.715 226.655 726.143 226.399C726.574 226.142 727.079 226.014 727.659 226.014C728.049 226.014 728.412 226.077 728.748 226.202C729.086 226.326 729.381 226.512 729.632 226.76C729.886 227.009 730.084 227.322 730.225 227.699C730.366 228.073 730.436 228.512 730.436 229.015V229.465H725.447V228.449H728.894C728.894 228.213 728.842 228.004 728.74 227.822C728.637 227.64 728.495 227.498 728.313 227.395C728.133 227.29 727.924 227.237 727.686 227.237C727.437 227.237 727.216 227.295 727.024 227.41C726.834 227.523 726.686 227.676 726.578 227.868C726.47 228.058 726.415 228.27 726.412 228.503V229.469C726.412 229.761 726.466 230.014 726.574 230.227C726.684 230.439 726.839 230.604 727.039 230.719C727.239 230.834 727.477 230.892 727.751 230.892C727.933 230.892 728.1 230.866 728.251 230.815C728.403 230.764 728.532 230.687 728.64 230.584C728.748 230.482 728.83 230.356 728.886 230.207L730.402 230.307C730.325 230.671 730.167 230.99 729.929 231.261C729.693 231.531 729.387 231.741 729.013 231.892C728.641 232.041 728.212 232.115 727.724 232.115Z" fill="black"/>
<circle cx="848" cy="259" r="40" fill="white" fill-opacity="0.75"/>
<path d="M838.625 242.333C832.297 242.333 827.167 247.463 827.167 253.792C827.167 265.25 840.708 275.667 848 278.09C855.292 275.667 868.833 265.25 868.833 253.792C868.833 247.463 863.703 242.333 857.375 242.333C853.5 242.333 850.073 244.257 848 247.202C846.943 245.697 845.54 244.469 843.908 243.621C842.276 242.774 840.464 242.332 838.625 242.333Z" stroke="black" stroke-opacity="0.5" stroke-width="4" stroke-linecap="round" stroke-linejoin="round"/>
<circle cx="456" cy="349" r="40" fill="white" fill-opacity="0.75"/>
<path d="M443.777 367.75C441.323 367.75 439.333 365.708 439.333 363.188V344.85C439.333 343.465 439.948 342.152 441 341.288L453.223 331.25C454.004 330.603 454.986 330.25 456 330.25C457.014 330.25 457.996 330.603 458.777 331.25L470.998 341.288C472.052 342.152 472.667 343.465 472.667 344.85V363.188C472.667 365.708 470.677 367.75 468.223 367.75H443.777Z" stroke="black" stroke-opacity="0.5" stroke-width="4" stroke-linecap="round" stroke-linejoin="round"/>
<path d="M450.792 367.75V356.292C450.792 355.187 451.231 354.127 452.012 353.345C452.793 352.564 453.853 352.125 454.958 352.125H457.042C458.147 352.125 459.207 352.564 459.988 353.345C460.769 354.127 461.208 355.187 461.208 356.292V367.75" stroke="black" stroke-opacity="0.5" stroke-width="4" stroke-linecap="round" stroke-linejoin="round"/>
<circle cx="561" cy="259" r="40" fill="white" fill-opacity="0.75"/>
<g clip-path="url(#clip0_249_714)">
<path d="M561 237.125C547.191 237.125 536 246.217 536 257.438C536 262.086 537.943 266.344 541.166 269.771C539.711 273.619 536.684 276.881 536.635 276.92C535.99 277.604 535.814 278.6 536.186 279.459C536.557 280.318 537.406 280.875 538.344 280.875C544.35 280.875 549.086 278.365 551.928 276.354C554.75 277.242 557.797 277.75 561 277.75C574.809 277.75 586 268.658 586 257.438C586 246.217 574.809 237.125 561 237.125ZM561 273.062C558.393 273.062 555.814 272.662 553.344 271.881L551.127 271.178L549.223 272.525C547.826 273.512 545.912 274.615 543.607 275.357C544.32 274.176 545.014 272.848 545.551 271.432L546.586 268.688L544.574 266.559C542.807 264.674 540.688 261.559 540.688 257.438C540.688 248.824 549.799 241.812 561 241.812C572.201 241.812 581.313 248.824 581.313 257.438C581.313 266.051 572.201 273.062 561 273.062Z" fill="black" fill-opacity="0.5"/>
</g>
<circle cx="953" cy="349" r="40" fill="white" fill-opacity="0.75"/>
<path d="M970.708 331.292L935.292 342.75L948.833 349L963.417 338.583L953 353.167L959.25 366.708L970.708 331.292Z" stroke="black" stroke-opacity="0.5" stroke-width="4" stroke-linecap="round" stroke-linejoin="round"/>
<defs>
<filter id="filter0_d_249_714" x="0" y="0" width="1450" height="625" filterUnits="userSpaceOnUse" color-interpolation-filters="sRGB">
<feFlood flood-opacity="0" result="BackgroundImageFix"/>
<feColorMatrix in="SourceAlpha" type="matrix" values="0 0 0 0 0 0 0 0 0 0 0 0 0 0 0 0 0 0 127 0" result="hardAlpha"/>
<feOffset dx="20" dy="25"/>
<feGaussianBlur stdDeviation="37.5"/>
<feComposite in2="hardAlpha" operator="out"/>
<feColorMatrix type="matrix" values="0 0 0 0 0 0 0 0 0 0 0 0 0 0 0 0 0 0 0.25 0"/>
<feBlend mode="normal" in2="BackgroundImageFix" result="effect1_dropShadow_249_714"/>
<feBlend mode="normal" in="SourceGraphic" in2="effect1_dropShadow_249_714" result="shape"/>
</filter>
<linearGradient id="paint0_linear_249_714" x1="1355" y1="49.9999" x2="55" y2="496.5" gradientUnits="userSpaceOnUse">
<stop stop-color="#00C2FF"/>
<stop offset="1" stop-color="#7CE0FF"/>
</linearGradient>
<linearGradient id="paint1_linear_249_714" x1="705" y1="48.5" x2="705" y2="434" gradientUnits="userSpaceOnUse">
<stop stop-color="white" stop-opacity="0"/>
<stop offset="1" stop-color="white"/>
</linearGradient>
<clipPath id="clip0_249_714">
<rect width="50" height="50" fill="white" transform="translate(536 234)"/>
</clipPath>
</defs>
</svg>
